<svg xmlns="http://www.w3.org/2000/svg" version="1.0" width="512.000000pt" height="512.000000pt" viewBox="0 0 512.000000 512.000000" preserveAspectRatio="xMidYMid meet" transform="matrix(1, 0, 0, -1, 0, 0)">

<g transform="translate(0.000000,512.000000) scale(0.100000,-0.100000)" fill="#522678" stroke="none">
<path d="M1940 4358 l-612 -753 616 -3 c339 -1 893 -1 1232 0 l616 3 -612 753 c-337 413 -616 752 -620 752 -4 0 -283 -339 -620 -752z" fill="#522678"/>
<path d="M1180 4389 c-399 -231 -731 -424 -739 -428 -9 -6 3 -17 40 -38 30 -17 152 -87 271 -156 l217 -126 476 585 c261 321 471 584 467 583 -4 0 -333 -189 -732 -420z" fill="#522678"/>
<path d="M3676 4225 c457 -562 477 -585 498 -572 11 8 133 78 269 157 l249 143 -29 17 c-62 39 -1453 840 -1458 840 -2 0 210 -263 471 -585z" fill="#522678"/>
<path d="M281 2833 c0 -472 4 -849 8 -838 24 58 520 1362 523 1373 3 12 -168 116 -474 291 l-58 32 1 -858z" fill="#522678"/>
<path d="M4571 3536 c-145 -84 -264 -156 -264 -160 -1 -4 118 -320 263 -701 l265 -694 3 430 c1 237 1 621 0 854 l-3 424 -264 -153z" fill="#522678"/>
<path d="M1272 3290 c7 -20 1283 -2229 1288 -2229 5 0 1281 2209 1288 2229 2 7 -451 10 -1288 10 -837 0 -1290 -3 -1288 -10z" fill="#522678"/>
<path d="M1025 3079 c-2 -8 -158 -416 -345 -906 -187 -491 -340 -897 -340 -903 0 -5 4 -10 8 -10 5 0 415 -65 913 -145 497 -80 928 -149 957 -154 l52 -8 -23 41 c-85 150 -1202 2083 -1208 2090 -5 6 -10 3 -14 -5z" fill="#522678"/>
<path d="M3470 2028 c-337 -585 -614 -1066 -616 -1069 -2 -3 7 -4 19 -2 12 2 445 71 962 154 517 82 941 152 943 154 3 2 -1 19 -7 37 -33 93 -675 1774 -681 1781 -4 4 -283 -471 -620 -1055z" fill="#522678"/>
<path d="M955 842 c17 -11 336 -196 710 -412 374 -216 695 -401 713 -412 l32 -20 0 314 0 314 -707 113 c-390 62 -724 115 -743 118 l-35 5 30 -20z" fill="#522678"/>
<path d="M3428 741 l-718 -116 0 -313 0 -314 33 20 c17 11 347 201 732 422 385 222 704 407 710 412 16 14 -22 8 -757 -111z" fill="#522678"/>
</g>
</svg>